# xmcd
#
# Track frame offsets: 
#        150
#        8827
#        21507
#        35992
#        45567
#        57542
#        69065
#        78985
#        90755
#        101962
#        116800
#        129072
#        146017
#        158595
#        170070
#        185642
#        197817
#        209100
#
# Disc length: 2957 seconds
#
# Revision: 1
# Processed by: cddbd v1.5.2PL0 Copyright (c) Steve Scherf et al.
# Submitted via: ExactAudioCopy v0.99pb5
#
DISCID=010b8b12
DTITLE=Various Artist - The Masters - Patsy Cline and Jeannie C. Riley CD2
DYEAR=1997
DGENRE=Country
TTITLE0=Patsy Cline - Ain't No Wheels On This Ship
TTITLE1=Patsy Cline - Just A Closer Walk With Thee
TTITLE2=Jeannie C. Riley - Harper Valley P.T.A.
TTITLE3=Jeannie C. Riley - The Girl Most Likely
TTITLE4=Jeannie C. Riley - There Never Was A Time
TTITLE5=Jeannie C. Riley - The Back Side Of Dallas
TTITLE6=Jeannie C. Riley - Things Go Better With Love
TTITLE7=Jeannie C. Riley - Country Girl
TTITLE8=Jeannie C. Riley - Duty Not Desire
TTITLE9=Jeannie C. Riley - Satan Place
TTITLE10=Jeannie C. Riley - Good Enough To Be Your Wife
TTITLE11=Jeannie C. Riley - Oh Singer
TTITLE12=Jeannie C. Riley - Roses And Thorns
TTITLE13=Jeannie C. Riley - I Almost Called Your Name
TTITLE14=Jeannie C. Riley - Tell The Truth And Shame The Devil
TTITLE15=Jeannie C. Riley - Light Your Life
TTITLE16=Jeannie C. Riley - Am I That Easy To Forget
TTITLE17=Jeannie C. Riley - My Man
EXTD=
EXTT0=
EXTT1=
EXTT2=
EXTT3=
EXTT4=
EXTT5=
EXTT6=
EXTT7=
EXTT8=
EXTT9=
EXTT10=
EXTT11=
EXTT12=
EXTT13=
EXTT14=
EXTT15=
EXTT16=
EXTT17=
PLAYORDER=
